<svg width="105" height="38" viewBox="0 0 105 38" fill="none" xmlns="http://www.w3.org/2000/svg">
<rect x="0.640625" y="1.49365" width="92.9719" height="17.7136" fill="#D6141D"/>
<path d="M14.5656 15.3071H12.3103C12.0914 15.3071 11.9065 15.2487 11.7556 15.132C11.6048 15.0152 11.4661 14.8473 11.3396 14.6284L9.57334 11.3075C9.45657 11.0934 9.32519 10.9523 9.17922 10.8842C9.03325 10.816 8.84835 10.782 8.62452 10.782H7.51513V15.3071H5.0482V4.67303H7.51513V8.97922H8.42016C8.60506 8.97922 8.7632 8.94516 8.89457 8.87704C9.03081 8.80892 9.15489 8.68484 9.2668 8.50481L11.1936 5.30071C11.3056 5.11582 11.4418 4.96498 11.6024 4.8482C11.7629 4.73142 11.9576 4.67303 12.1863 4.67303H14.3029L11.7118 8.85514C11.5902 9.04977 11.4442 9.21034 11.2739 9.33685C11.1036 9.46336 10.9163 9.56798 10.7119 9.65069C11.0379 9.73828 11.3153 9.88425 11.544 10.0886C11.7727 10.2881 11.9868 10.5655 12.1863 10.9207L14.5656 15.3071ZM21.1307 11.2418L20.1454 8.32964C20.0724 8.14474 19.9946 7.92822 19.9118 7.68007C19.8291 7.42705 19.7464 7.15456 19.6637 6.86262C19.5907 7.15943 19.5129 7.43434 19.4301 7.68736C19.3474 7.94038 19.2696 8.15934 19.1966 8.34424L18.2186 11.2418H21.1307ZM25.0501 15.3071H23.1378C22.9237 15.3071 22.751 15.2585 22.6196 15.1612C22.4883 15.059 22.3885 14.93 22.3204 14.7743L21.6927 12.9205H17.6493L17.0216 14.7743C16.9681 14.9106 16.8708 15.0346 16.7296 15.1466C16.5934 15.2536 16.4231 15.3071 16.2187 15.3071H14.2919L18.4083 4.67303H20.9337L25.0501 15.3071ZM32.8668 13.4752V6.50499H30.5166C30.4582 7.42461 30.3828 8.24936 30.2904 8.97922C30.1979 9.70908 30.0909 10.3562 29.9692 10.9207C29.8476 11.4851 29.7114 11.979 29.5605 12.4023C29.4145 12.8207 29.2564 13.1784 29.0861 13.4752H32.8668ZM36.9248 13.4752V17.1172C36.9248 17.3215 36.8518 17.4846 36.7059 17.6062C36.5648 17.7278 36.3799 17.7887 36.1512 17.7887H34.6623V15.3071H27.5242V17.1172C27.5242 17.3215 27.4512 17.4846 27.3052 17.6062C27.1641 17.7278 26.9792 17.7887 26.7505 17.7887H25.2616V13.4752H26.4586C26.5802 13.4022 26.7043 13.2878 26.8308 13.1321C26.9573 12.9716 27.079 12.7502 27.1958 12.468C27.3174 12.1858 27.4317 11.8281 27.5388 11.3951C27.6458 10.962 27.7432 10.4316 27.8307 9.80397C27.9183 9.17628 27.9913 8.44156 28.0497 7.59978C28.113 6.75314 28.1592 5.77756 28.1884 4.67303H35.3483V13.4752H36.9248ZM42.0284 9.89155C42.6707 9.89155 43.1329 9.73828 43.4151 9.43174C43.6973 9.12519 43.8385 8.69701 43.8385 8.14718C43.8385 7.90389 43.802 7.6825 43.729 7.483C43.656 7.28351 43.5441 7.11321 43.3932 6.9721C43.2473 6.82613 43.0599 6.71421 42.8312 6.63636C42.6074 6.55851 42.3398 6.51958 42.0284 6.51958H40.7438V9.89155H42.0284ZM42.0284 4.67303C42.7777 4.67303 43.42 4.76305 43.9552 4.94308C44.4953 5.11825 44.9381 5.36154 45.2836 5.67294C45.6339 5.98435 45.8918 6.35172 46.0572 6.77504C46.2227 7.19836 46.3054 7.65574 46.3054 8.14718C46.3054 8.67754 46.2202 9.16412 46.0499 9.6069C45.8796 10.0497 45.6193 10.4292 45.269 10.7455C44.9186 11.0618 44.4734 11.3099 43.9333 11.4899C43.3981 11.6651 42.7631 11.7527 42.0284 11.7527H40.7438V15.3071H38.2769V4.67303H42.0284ZM57.994 9.98643C57.994 10.7552 57.8602 11.4705 57.5926 12.1322C57.3298 12.794 56.9576 13.3706 56.4759 13.862C55.9942 14.3486 55.4127 14.7305 54.7315 15.0079C54.0552 15.2852 53.3034 15.4239 52.4763 15.4239C51.6491 15.4239 50.8949 15.2852 50.2137 15.0079C49.5325 14.7305 48.9486 14.3486 48.462 13.862C47.9803 13.3706 47.6056 12.794 47.338 12.1322C47.0753 11.4705 46.9439 10.7552 46.9439 9.98643C46.9439 9.21764 47.0753 8.50238 47.338 7.84064C47.6056 7.17889 47.9803 6.60473 48.462 6.11816C48.9486 5.63158 49.5325 5.24962 50.2137 4.97228C50.8949 4.69493 51.6491 4.55625 52.4763 4.55625C53.3034 4.55625 54.0552 4.69736 54.7315 4.97957C55.4127 5.25692 55.9942 5.63888 56.4759 6.12546C56.9576 6.61203 57.3298 7.18619 57.5926 7.84793C57.8602 8.50968 57.994 9.22251 57.994 9.98643ZM55.4687 9.98643C55.4687 9.46093 55.4006 8.98895 55.2643 8.5705C55.1281 8.14718 54.931 7.78955 54.6731 7.4976C54.4201 7.20566 54.1087 6.98183 53.7389 6.82613C53.3691 6.67042 52.9482 6.59257 52.4763 6.59257C51.9994 6.59257 51.5737 6.67042 51.199 6.82613C50.8292 6.98183 50.5154 7.20566 50.2575 7.4976C50.0045 7.78955 49.8098 8.14718 49.6736 8.5705C49.5373 8.98895 49.4692 9.46093 49.4692 9.98643C49.4692 10.5168 49.5373 10.9936 49.6736 11.417C49.8098 11.8354 50.0045 12.1906 50.2575 12.4826C50.5154 12.7745 50.8292 12.9983 51.199 13.154C51.5737 13.3049 51.9994 13.3803 52.4763 13.3803C52.9482 13.3803 53.3691 13.3049 53.7389 13.154C54.1087 12.9983 54.4201 12.7745 54.6731 12.4826C54.931 12.1906 55.1281 11.8354 55.2643 11.417C55.4006 10.9936 55.4687 10.5168 55.4687 9.98643ZM63.6498 13.446C63.9758 13.446 64.241 13.4046 64.4453 13.3219C64.6545 13.2392 64.8175 13.1321 64.9343 13.0008C65.0511 12.8694 65.1314 12.721 65.1752 12.5555C65.219 12.3901 65.2409 12.2222 65.2409 12.0519C65.2409 11.8573 65.2141 11.6821 65.1606 11.5264C65.1119 11.3707 65.0243 11.2394 64.8978 11.1323C64.7762 11.0253 64.6132 10.9426 64.4088 10.8842C64.2045 10.8258 63.9466 10.7966 63.6352 10.7966H61.9127V13.446H63.6498ZM61.9127 6.51958V9.14709H63.1973C63.4697 9.14709 63.7155 9.12763 63.9344 9.0887C64.1534 9.04977 64.3383 8.98165 64.4891 8.88434C64.6448 8.78702 64.7616 8.65322 64.8394 8.48291C64.9222 8.31261 64.9635 8.09852 64.9635 7.84064C64.9635 7.58762 64.9319 7.37839 64.8686 7.21295C64.8054 7.04265 64.7081 6.90641 64.5767 6.80423C64.4453 6.70205 64.2774 6.62906 64.0731 6.58527C63.8736 6.54148 63.6352 6.51958 63.3578 6.51958H61.9127ZM63.3578 4.67303C64.0926 4.67303 64.7178 4.74115 65.2336 4.87739C65.7493 5.01363 66.1702 5.20583 66.4962 5.45398C66.8222 5.70214 67.0582 6.00381 67.2042 6.35901C67.355 6.71421 67.4305 7.11077 67.4305 7.54869C67.4305 7.78711 67.3964 8.01823 67.3283 8.24206C67.2602 8.46102 67.1531 8.66781 67.0071 8.86244C66.8612 9.05221 66.6738 9.22737 66.4451 9.38794C66.2165 9.54851 65.9415 9.68719 65.6204 9.80397C66.3211 9.97427 66.8393 10.2492 67.175 10.6287C67.5107 11.0082 67.6786 11.4997 67.6786 12.103C67.6786 12.5555 67.591 12.9764 67.4159 13.3657C67.2407 13.755 66.9828 14.0956 66.6422 14.3875C66.3065 14.6746 65.8904 14.9008 65.3941 15.0663C64.8978 15.2268 64.331 15.3071 63.6936 15.3071H59.4458V4.67303H63.3578ZM73.1222 13.446C73.4482 13.446 73.7159 13.4095 73.9251 13.3365C74.1343 13.2635 74.2973 13.1662 74.4141 13.0446C74.5357 12.918 74.6185 12.7769 74.6623 12.6212C74.706 12.4655 74.7279 12.3025 74.7279 12.1322C74.7279 11.9376 74.706 11.7576 74.6623 11.5921C74.6185 11.4267 74.5357 11.2856 74.4141 11.1688C74.2973 11.0472 74.1343 10.9547 73.9251 10.8915C73.7159 10.8233 73.4482 10.7893 73.1222 10.7893H71.6917V13.446H73.1222ZM73.1222 8.92813C73.857 8.92813 74.4798 9.00842 74.9907 9.16899C75.5065 9.32955 75.9249 9.54608 76.2461 9.81856C76.5672 10.0862 76.8008 10.4 76.9467 10.7601C77.0927 11.1153 77.1657 11.4899 77.1657 11.8841C77.1657 12.395 77.0732 12.8621 76.8883 13.2854C76.7083 13.7039 76.4456 14.0639 76.1001 14.3656C75.7546 14.6624 75.3313 14.8935 74.8301 15.059C74.3289 15.2244 73.7597 15.3071 73.1222 15.3071H69.2248V4.67303H71.6917V8.92813H73.1222ZM80.8442 15.3071H78.3627V4.67303H80.8442V15.3071ZM85.377 6.57067V9.05221H88.7198V10.8769H85.377V13.4095H89.7416V15.3071H82.8954V4.67303H89.7416V6.57067H85.377ZM9.31139 25.6291H6.31896V34.3071H3.85202V25.6291H0.859584V23.673H9.31139V25.6291ZM13.0465 25.5707V28.0522H16.3892V29.8769H13.0465V32.4095H17.411V34.3071H10.5649V23.673H17.411V25.5707H13.0465ZM28.056 34.3071H25.589C25.4285 34.3071 25.2971 34.2682 25.1949 34.1904C25.0976 34.1125 25.0197 34.02 24.9614 33.913L22.8302 30.1907C22.7912 30.2978 22.7474 30.3902 22.6988 30.4681L20.7136 33.913C20.6454 34.0103 20.5651 34.1003 20.4727 34.1831C20.3803 34.2658 20.261 34.3071 20.1151 34.3071H17.8087L21.2318 28.8332L17.9401 23.673H20.407C20.5676 23.673 20.6844 23.6949 20.7573 23.7387C20.8352 23.7776 20.9033 23.8458 20.9617 23.9431L23.0783 27.5267C23.1026 27.4635 23.1294 27.4026 23.1586 27.3442C23.1927 27.2859 23.2291 27.225 23.2681 27.1618L25.1219 23.9796C25.19 23.8725 25.2606 23.7947 25.3336 23.746C25.4114 23.6974 25.5063 23.673 25.6182 23.673H27.983L24.6475 28.731L28.056 34.3071ZM38.2949 23.673V34.3071H35.8134V29.8112H31.4926V34.3071H29.0111V23.673H31.4926V28.1179H35.8134V23.673H38.2949ZM50.7952 28.9864C50.7952 29.7552 50.6614 30.4705 50.3938 31.1322C50.131 31.794 49.7588 32.3706 49.2771 32.862C48.7954 33.3486 48.2139 33.7305 47.5327 34.0079C46.8564 34.2852 46.1046 34.4239 45.2774 34.4239C44.4502 34.4239 43.6961 34.2852 43.0148 34.0079C42.3336 33.7305 41.7498 33.3486 41.2632 32.862C40.7815 32.3706 40.4068 31.794 40.1392 31.1322C39.8764 30.4705 39.7451 29.7552 39.7451 28.9864C39.7451 28.2176 39.8764 27.5024 40.1392 26.8406C40.4068 26.1789 40.7815 25.6047 41.2632 25.1182C41.7498 24.6316 42.3336 24.2496 43.0148 23.9723C43.6961 23.6949 44.4502 23.5563 45.2774 23.5563C46.1046 23.5563 46.8564 23.6974 47.5327 23.9796C48.2139 24.2569 48.7954 24.6389 49.2771 25.1255C49.7588 25.612 50.131 26.1862 50.3938 26.8479C50.6614 27.5097 50.7952 28.2225 50.7952 28.9864ZM48.2699 28.9864C48.2699 28.4609 48.2017 27.989 48.0655 27.5705C47.9293 27.1472 47.7322 26.7895 47.4743 26.4976C47.2213 26.2057 46.9099 25.9818 46.5401 25.8261C46.1703 25.6704 45.7494 25.5926 45.2774 25.5926C44.8006 25.5926 44.3748 25.6704 44.0002 25.8261C43.6304 25.9818 43.3165 26.2057 43.0586 26.4976C42.8056 26.7895 42.611 27.1472 42.4747 27.5705C42.3385 27.989 42.2704 28.4609 42.2704 28.9864C42.2704 29.5168 42.3385 29.9936 42.4747 30.417C42.611 30.8354 42.8056 31.1906 43.0586 31.4826C43.3165 31.7745 43.6304 31.9983 44.0002 32.154C44.3748 32.3049 44.8006 32.3803 45.2774 32.3803C45.7494 32.3803 46.1703 32.3049 46.5401 32.154C46.9099 31.9983 47.2213 31.7745 47.4743 31.4826C47.7322 31.1906 47.9293 30.8354 48.0655 30.417C48.2017 29.9936 48.2699 29.5168 48.2699 28.9864ZM61.0761 34.3071H58.5946V25.505H56.2444C56.1714 26.809 56.0692 27.9354 55.9379 28.8843C55.8065 29.8282 55.6483 30.6311 55.4635 31.2928C55.2786 31.9545 55.0693 32.4898 54.8358 32.8985C54.6022 33.3072 54.3468 33.6259 54.0694 33.8546C53.7921 34.0784 53.4928 34.2293 53.1717 34.3071C52.8554 34.385 52.5221 34.4239 52.1718 34.4239C51.7436 34.4239 51.4395 34.385 51.2594 34.3071C51.0794 34.2341 50.9894 34.1247 50.9894 33.9787V32.4825H51.6025C51.7095 32.4825 51.8214 32.4727 51.9382 32.4533C52.055 32.4338 52.1742 32.3827 52.2958 32.3C52.4175 32.2173 52.5367 32.0956 52.6535 31.9351C52.7751 31.7745 52.8895 31.5507 52.9965 31.2636C53.1084 30.9765 53.213 30.6189 53.3104 30.1907C53.4125 29.7625 53.5026 29.2443 53.5804 28.6361C53.6631 28.023 53.7337 27.3077 53.7921 26.4903C53.8505 25.6729 53.8918 24.7338 53.9161 23.673H61.0761V34.3071ZM73.5749 28.9864C73.5749 29.7552 73.4411 30.4705 73.1734 31.1322C72.9107 31.794 72.5385 32.3706 72.0568 32.862C71.5751 33.3486 70.9936 33.7305 70.3124 34.0079C69.636 34.2852 68.8843 34.4239 68.0571 34.4239C67.2299 34.4239 66.4757 34.2852 65.7945 34.0079C65.1133 33.7305 64.5294 33.3486 64.0429 32.862C63.5612 32.3706 63.1865 31.794 62.9189 31.1322C62.6561 30.4705 62.5248 29.7552 62.5248 28.9864C62.5248 28.2176 62.6561 27.5024 62.9189 26.8406C63.1865 26.1789 63.5612 25.6047 64.0429 25.1182C64.5294 24.6316 65.1133 24.2496 65.7945 23.9723C66.4757 23.6949 67.2299 23.5563 68.0571 23.5563C68.8843 23.5563 69.636 23.6974 70.3124 23.9796C70.9936 24.2569 71.5751 24.6389 72.0568 25.1255C72.5385 25.612 72.9107 26.1862 73.1734 26.8479C73.4411 27.5097 73.5749 28.2225 73.5749 28.9864ZM71.0495 28.9864C71.0495 28.4609 70.9814 27.989 70.8452 27.5705C70.7089 27.1472 70.5119 26.7895 70.254 26.4976C70.001 26.2057 69.6896 25.9818 69.3198 25.8261C68.95 25.6704 68.5291 25.5926 68.0571 25.5926C67.5803 25.5926 67.1545 25.6704 66.7799 25.8261C66.4101 25.9818 66.0962 26.2057 65.8383 26.4976C65.5853 26.7895 65.3907 27.1472 65.2544 27.5705C65.1182 27.989 65.0501 28.4609 65.0501 28.9864C65.0501 29.5168 65.1182 29.9936 65.2544 30.417C65.3907 30.8354 65.5853 31.1906 65.8383 31.4826C66.0962 31.7745 66.4101 31.9983 66.7799 32.154C67.1545 32.3049 67.5803 32.3803 68.0571 32.3803C68.5291 32.3803 68.95 32.3049 69.3198 32.154C69.6896 31.9983 70.001 31.7745 70.254 31.4826C70.5119 31.1906 70.7089 30.8354 70.8452 30.417C70.9814 29.9936 71.0495 29.5168 71.0495 28.9864ZM81.7267 25.505H77.5081V34.3071H75.0266V23.673H81.7267V25.505ZM92.2648 23.673V34.3071H89.7833V28.3515C89.7833 28.0741 89.7906 27.7822 89.8052 27.4756C89.8247 27.1642 89.8587 26.8333 89.9074 26.483C89.7955 26.7944 89.6738 27.0839 89.5424 27.3515C89.4111 27.6143 89.2821 27.8454 89.1556 28.0449L85.9223 33.57C85.8688 33.6576 85.8031 33.7451 85.7253 33.8327C85.6523 33.9203 85.5696 34.0006 85.4771 34.0736C85.3847 34.1417 85.2849 34.1976 85.1779 34.2414C85.0708 34.2852 84.9589 34.3071 84.8421 34.3071H82.981V23.673H85.4625V29.6214C85.4625 29.8988 85.4552 30.1931 85.4406 30.5045C85.426 30.8111 85.392 31.1395 85.3384 31.4899C85.4503 31.1833 85.572 30.8987 85.7034 30.6359C85.8347 30.3683 85.9637 30.1347 86.0902 29.9353L89.3235 24.4102C89.377 24.3226 89.4403 24.235 89.5132 24.1474C89.5911 24.0599 89.6762 23.982 89.7687 23.9139C89.8611 23.8409 89.9609 23.7825 90.0679 23.7387C90.175 23.6949 90.2869 23.673 90.4037 23.673H92.2648ZM103.612 23.673V34.3071H101.13V28.3515C101.13 28.0741 101.138 27.7822 101.152 27.4756C101.172 27.1642 101.206 26.8333 101.254 26.483C101.143 26.7944 101.021 27.0839 100.89 27.3515C100.758 27.6143 100.629 27.8454 100.503 28.0449L97.2694 33.57C97.2159 33.6576 97.1502 33.7451 97.0723 33.8327C96.9994 33.9203 96.9166 34.0006 96.8242 34.0736C96.7317 34.1417 96.632 34.1976 96.5249 34.2414C96.4179 34.2852 96.306 34.3071 96.1892 34.3071H94.3281V23.673H96.8096V29.6214C96.8096 29.8988 96.8023 30.1931 96.7877 30.5045C96.7731 30.8111 96.739 31.1395 96.6855 31.4899C96.7974 31.1833 96.9191 30.8987 97.0504 30.6359C97.1818 30.3683 97.3108 30.1347 97.4373 29.9353L100.671 24.4102C100.724 24.3226 100.787 24.235 100.86 24.1474C100.938 24.0599 101.023 23.982 101.116 23.9139C101.208 23.8409 101.308 23.7825 101.415 23.7387C101.522 23.6949 101.634 23.673 101.751 23.673H103.612Z" fill="white"/>
</svg>
