<svg width="158" height="47" viewBox="0 0 158 47" fill="none" xmlns="http://www.w3.org/2000/svg">
<rect x="53.6406" y="5.44824" width="92.9719" height="17.7136" fill="#C41119"/>
<path d="M67.5656 19.2617H65.3103C65.0914 19.2617 64.9065 19.2033 64.7556 19.0866C64.6048 18.9698 64.4661 18.8019 64.3396 18.5829L62.5733 15.2621C62.4566 15.048 62.3252 14.9069 62.1792 14.8388C62.0332 14.7706 61.8483 14.7366 61.6245 14.7366H60.5151V19.2617H58.0482V8.62762H60.5151V12.9338H61.4202C61.6051 12.9338 61.7632 12.8998 61.8946 12.8316C62.0308 12.7635 62.1549 12.6394 62.2668 12.4594L64.1936 9.2553C64.3056 9.07041 64.4418 8.91957 64.6024 8.80279C64.7629 8.68601 64.9576 8.62762 65.1863 8.62762H67.3029L64.7118 12.8097C64.5902 13.0044 64.4442 13.1649 64.2739 13.2914C64.1036 13.418 63.9163 13.5226 63.7119 13.6053C64.0379 13.6929 64.3153 13.8388 64.544 14.0432C64.7727 14.2427 64.9868 14.52 65.1863 14.8752L67.5656 19.2617ZM74.1307 15.1964L73.1454 12.2842C73.0724 12.0993 72.9946 11.8828 72.9118 11.6347C72.8291 11.3816 72.7464 11.1092 72.6637 10.8172C72.5907 11.114 72.5129 11.3889 72.4301 11.642C72.3474 11.895 72.2696 12.1139 72.1966 12.2988L71.2186 15.1964H74.1307ZM78.0501 19.2617H76.1378C75.9237 19.2617 75.751 19.2131 75.6196 19.1157C75.4883 19.0136 75.3885 18.8846 75.3204 18.7289L74.6927 16.8751H70.6493L70.0216 18.7289C69.9681 18.8652 69.8708 18.9892 69.7296 19.1011C69.5934 19.2082 69.4231 19.2617 69.2187 19.2617H67.2919L71.4083 8.62762H73.9337L78.0501 19.2617ZM85.8668 17.4298V10.4596H83.5166C83.4582 11.3792 83.3828 12.2039 83.2904 12.9338C83.1979 13.6637 83.0909 14.3108 82.9692 14.8752C82.8476 15.4397 82.7114 15.9335 82.5605 16.3569C82.4145 16.7753 82.2564 17.133 82.0861 17.4298H85.8668ZM89.9248 17.4298V21.0718C89.9248 21.2761 89.8518 21.4391 89.7059 21.5608C89.5648 21.6824 89.3799 21.7433 89.1512 21.7433H87.6623V19.2617H80.5242V21.0718C80.5242 21.2761 80.4512 21.4391 80.3052 21.5608C80.1641 21.6824 79.9792 21.7433 79.7505 21.7433H78.2616V17.4298H79.4586C79.5802 17.3568 79.7043 17.2424 79.8308 17.0867C79.9573 16.9262 80.079 16.7048 80.1958 16.4226C80.3174 16.1403 80.4317 15.7827 80.5388 15.3497C80.6458 14.9166 80.7432 14.3862 80.8307 13.7586C80.9183 13.1309 80.9913 12.3961 81.0497 11.5544C81.113 10.7077 81.1592 9.73215 81.1884 8.62762H88.3483V17.4298H89.9248ZM95.0284 13.8461C95.6707 13.8461 96.1329 13.6929 96.4151 13.3863C96.6973 13.0798 96.8385 12.6516 96.8385 12.1018C96.8385 11.8585 96.802 11.6371 96.729 11.4376C96.656 11.2381 96.5441 11.0678 96.3932 10.9267C96.2473 10.7807 96.0599 10.6688 95.8312 10.591C95.6074 10.5131 95.3398 10.4742 95.0284 10.4742H93.7438V13.8461H95.0284ZM95.0284 8.62762C95.7777 8.62762 96.42 8.71764 96.9552 8.89767C97.4953 9.07284 97.9381 9.31613 98.2836 9.62753C98.6339 9.93894 98.8918 10.3063 99.0572 10.7296C99.2227 11.1529 99.3054 11.6103 99.3054 12.1018C99.3054 12.6321 99.2202 13.1187 99.0499 13.5615C98.8796 14.0043 98.6193 14.3838 98.269 14.7001C97.9186 15.0164 97.4734 15.2645 96.9333 15.4445C96.3981 15.6197 95.7631 15.7073 95.0284 15.7073H93.7438V19.2617H91.2769V8.62762H95.0284ZM110.994 13.941C110.994 14.7098 110.86 15.4251 110.593 16.0868C110.33 16.7486 109.958 17.3252 109.476 17.8166C108.994 18.3032 108.413 18.6851 107.732 18.9625C107.055 19.2398 106.303 19.3785 105.476 19.3785C104.649 19.3785 103.895 19.2398 103.214 18.9625C102.532 18.6851 101.949 18.3032 101.462 17.8166C100.98 17.3252 100.606 16.7486 100.338 16.0868C100.075 15.4251 99.9439 14.7098 99.9439 13.941C99.9439 13.1722 100.075 12.457 100.338 11.7952C100.606 11.1335 100.98 10.5593 101.462 10.0727C101.949 9.58617 102.532 9.20421 103.214 8.92687C103.895 8.64952 104.649 8.51084 105.476 8.51084C106.303 8.51084 107.055 8.65195 107.732 8.93416C108.413 9.21151 108.994 9.59347 109.476 10.08C109.958 10.5666 110.33 11.1408 110.593 11.8025C110.86 12.4643 110.994 13.1771 110.994 13.941ZM108.469 13.941C108.469 13.4155 108.401 12.9435 108.264 12.5251C108.128 12.1018 107.931 11.7441 107.673 11.4522C107.42 11.1602 107.109 10.9364 106.739 10.7807C106.369 10.625 105.948 10.5472 105.476 10.5472C104.999 10.5472 104.574 10.625 104.199 10.7807C103.829 10.9364 103.515 11.1602 103.257 11.4522C103.004 11.7441 102.81 12.1018 102.674 12.5251C102.537 12.9435 102.469 13.4155 102.469 13.941C102.469 14.4714 102.537 14.9482 102.674 15.3716C102.81 15.79 103.004 16.1452 103.257 16.4372C103.515 16.7291 103.829 16.9529 104.199 17.1086C104.574 17.2595 104.999 17.3349 105.476 17.3349C105.948 17.3349 106.369 17.2595 106.739 17.1086C107.109 16.9529 107.42 16.7291 107.673 16.4372C107.931 16.1452 108.128 15.79 108.264 15.3716C108.401 14.9482 108.469 14.4714 108.469 13.941ZM116.65 17.4006C116.976 17.4006 117.241 17.3592 117.445 17.2765C117.655 17.1938 117.818 17.0867 117.934 16.9554C118.051 16.824 118.131 16.6756 118.175 16.5101C118.219 16.3447 118.241 16.1768 118.241 16.0065C118.241 15.8119 118.214 15.6367 118.161 15.481C118.112 15.3253 118.024 15.194 117.898 15.0869C117.776 14.9799 117.613 14.8971 117.409 14.8388C117.204 14.7804 116.947 14.7512 116.635 14.7512H114.913V17.4006H116.65ZM114.913 10.4742V13.1017H116.197C116.47 13.1017 116.715 13.0822 116.934 13.0433C117.153 13.0044 117.338 12.9362 117.489 12.8389C117.645 12.7416 117.762 12.6078 117.839 12.4375C117.922 12.2672 117.964 12.0531 117.964 11.7952C117.964 11.5422 117.932 11.333 117.869 11.1675C117.805 10.9972 117.708 10.861 117.577 10.7588C117.445 10.6566 117.277 10.5837 117.073 10.5399C116.874 10.4961 116.635 10.4742 116.358 10.4742H114.913ZM116.358 8.62762C117.093 8.62762 117.718 8.69574 118.234 8.83198C118.749 8.96822 119.17 9.16042 119.496 9.40857C119.822 9.65673 120.058 9.9584 120.204 10.3136C120.355 10.6688 120.43 11.0654 120.43 11.5033C120.43 11.7417 120.396 11.9728 120.328 12.1966C120.26 12.4156 120.153 12.6224 120.007 12.817C119.861 13.0068 119.674 13.182 119.445 13.3425C119.216 13.5031 118.942 13.6418 118.62 13.7586C119.321 13.9289 119.839 14.2038 120.175 14.5833C120.511 14.9628 120.679 15.4543 120.679 16.0576C120.679 16.5101 120.591 16.931 120.416 17.3203C120.241 17.7095 119.983 18.0501 119.642 18.3421C119.306 18.6292 118.89 18.8554 118.394 19.0209C117.898 19.1814 117.331 19.2617 116.694 19.2617H112.446V8.62762H116.358ZM126.122 17.4006C126.448 17.4006 126.716 17.3641 126.925 17.2911C127.134 17.2181 127.297 17.1208 127.414 16.9991C127.536 16.8726 127.618 16.7315 127.662 16.5758C127.706 16.4201 127.728 16.2571 127.728 16.0868C127.728 15.8922 127.706 15.7122 127.662 15.5467C127.618 15.3813 127.536 15.2402 127.414 15.1234C127.297 15.0018 127.134 14.9093 126.925 14.8461C126.716 14.7779 126.448 14.7439 126.122 14.7439H124.692V17.4006H126.122ZM126.122 12.8827C126.857 12.8827 127.48 12.963 127.991 13.1236C128.506 13.2841 128.925 13.5007 129.246 13.7732C129.567 14.0408 129.801 14.3546 129.947 14.7147C130.093 15.0699 130.166 15.4445 130.166 15.8387C130.166 16.3496 130.073 16.8167 129.888 17.24C129.708 17.6585 129.446 18.0185 129.1 18.3202C128.755 18.617 128.331 18.8481 127.83 19.0136C127.329 19.179 126.76 19.2617 126.122 19.2617H122.225V8.62762H124.692V12.8827H126.122ZM133.844 19.2617H131.363V8.62762H133.844V19.2617ZM138.377 10.5253V13.0068H141.72V14.8315H138.377V17.3641H142.742V19.2617H135.895V8.62762H142.742V10.5253H138.377ZM62.3114 29.5837H59.319V38.2617H56.852V29.5837H53.8596V27.6276H62.3114V29.5837ZM66.0465 29.5253V32.0068H69.3892V33.8315H66.0465V36.3641H70.411V38.2617H63.5649V27.6276H70.411V29.5253H66.0465ZM81.056 38.2617H78.589C78.4285 38.2617 78.2971 38.2228 78.1949 38.1449C78.0976 38.0671 78.0197 37.9746 77.9614 37.8676L75.8302 34.1453C75.7912 34.2523 75.7474 34.3448 75.6988 34.4226L73.7136 37.8676C73.6454 37.9649 73.5651 38.0549 73.4727 38.1376C73.3803 38.2204 73.261 38.2617 73.1151 38.2617H70.8087L74.2318 32.7877L70.9401 27.6276H73.407C73.5676 27.6276 73.6844 27.6495 73.7573 27.6933C73.8352 27.7322 73.9033 27.8004 73.9617 27.8977L76.0783 31.4813C76.1026 31.418 76.1294 31.3572 76.1586 31.2988C76.1927 31.2404 76.2291 31.1796 76.2681 31.1164L78.1219 27.9342C78.19 27.8271 78.2606 27.7493 78.3336 27.7006C78.4114 27.652 78.5063 27.6276 78.6182 27.6276H80.983L77.6475 32.6856L81.056 38.2617ZM91.2949 27.6276V38.2617H88.8134V33.7658H84.4926V38.2617H82.0111V27.6276H84.4926V32.0725H88.8134V27.6276H91.2949ZM103.795 32.941C103.795 33.7098 103.661 34.4251 103.394 35.0868C103.131 35.7486 102.759 36.3252 102.277 36.8166C101.795 37.3032 101.214 37.6851 100.533 37.9625C99.8564 38.2398 99.1046 38.3785 98.2774 38.3785C97.4502 38.3785 96.6961 38.2398 96.0148 37.9625C95.3336 37.6851 94.7498 37.3032 94.2632 36.8166C93.7815 36.3252 93.4068 35.7486 93.1392 35.0868C92.8764 34.4251 92.7451 33.7098 92.7451 32.941C92.7451 32.1722 92.8764 31.457 93.1392 30.7952C93.4068 30.1335 93.7815 29.5593 94.2632 29.0727C94.7498 28.5862 95.3336 28.2042 96.0148 27.9269C96.6961 27.6495 97.4502 27.5108 98.2774 27.5108C99.1046 27.5108 99.8564 27.652 100.533 27.9342C101.214 28.2115 101.795 28.5935 102.277 29.08C102.759 29.5666 103.131 30.1408 103.394 30.8025C103.661 31.4643 103.795 32.1771 103.795 32.941ZM101.27 32.941C101.27 32.4155 101.202 31.9435 101.065 31.5251C100.929 31.1018 100.732 30.7441 100.474 30.4522C100.221 30.1602 99.9099 29.9364 99.5401 29.7807C99.1703 29.625 98.7494 29.5472 98.2774 29.5472C97.8006 29.5472 97.3748 29.625 97.0002 29.7807C96.6304 29.9364 96.3165 30.1602 96.0586 30.4522C95.8056 30.7441 95.611 31.1018 95.4747 31.5251C95.3385 31.9435 95.2704 32.4155 95.2704 32.941C95.2704 33.4714 95.3385 33.9482 95.4747 34.3716C95.611 34.79 95.8056 35.1452 96.0586 35.4372C96.3165 35.7291 96.6304 35.9529 97.0002 36.1086C97.3748 36.2595 97.8006 36.3349 98.2774 36.3349C98.7494 36.3349 99.1703 36.2595 99.5401 36.1086C99.9099 35.9529 100.221 35.7291 100.474 35.4372C100.732 35.1452 100.929 34.79 101.065 34.3716C101.202 33.9482 101.27 33.4714 101.27 32.941ZM114.076 38.2617H111.595V29.4596H109.244C109.171 30.7636 109.069 31.89 108.938 32.8388C108.806 33.7828 108.648 34.5856 108.463 35.2474C108.279 35.9091 108.069 36.4444 107.836 36.8531C107.602 37.2618 107.347 37.5805 107.069 37.8092C106.792 38.033 106.493 38.1839 106.172 38.2617C105.855 38.3396 105.522 38.3785 105.172 38.3785C104.744 38.3785 104.439 38.3396 104.259 38.2617C104.079 38.1887 103.989 38.0793 103.989 37.9333V36.4371H104.602C104.71 36.4371 104.821 36.4273 104.938 36.4079C105.055 36.3884 105.174 36.3373 105.296 36.2546C105.417 36.1719 105.537 36.0502 105.653 35.8897C105.775 35.7291 105.889 35.5053 105.997 35.2182C106.108 34.9311 106.213 34.5735 106.31 34.1453C106.413 33.7171 106.503 33.1989 106.58 32.5907C106.663 31.9776 106.734 31.2623 106.792 30.4449C106.85 29.6274 106.892 28.6884 106.916 27.6276H114.076V38.2617ZM126.575 32.941C126.575 33.7098 126.441 34.4251 126.173 35.0868C125.911 35.7486 125.538 36.3252 125.057 36.8166C124.575 37.3032 123.994 37.6851 123.312 37.9625C122.636 38.2398 121.884 38.3785 121.057 38.3785C120.23 38.3785 119.476 38.2398 118.795 37.9625C118.113 37.6851 117.529 37.3032 117.043 36.8166C116.561 36.3252 116.186 35.7486 115.919 35.0868C115.656 34.4251 115.525 33.7098 115.525 32.941C115.525 32.1722 115.656 31.457 115.919 30.7952C116.186 30.1335 116.561 29.5593 117.043 29.0727C117.529 28.5862 118.113 28.2042 118.795 27.9269C119.476 27.6495 120.23 27.5108 121.057 27.5108C121.884 27.5108 122.636 27.652 123.312 27.9342C123.994 28.2115 124.575 28.5935 125.057 29.08C125.538 29.5666 125.911 30.1408 126.173 30.8025C126.441 31.4643 126.575 32.1771 126.575 32.941ZM124.05 32.941C124.05 32.4155 123.981 31.9435 123.845 31.5251C123.709 31.1018 123.512 30.7441 123.254 30.4522C123.001 30.1602 122.69 29.9364 122.32 29.7807C121.95 29.625 121.529 29.5472 121.057 29.5472C120.58 29.5472 120.155 29.625 119.78 29.7807C119.41 29.9364 119.096 30.1602 118.838 30.4522C118.585 30.7441 118.391 31.1018 118.254 31.5251C118.118 31.9435 118.05 32.4155 118.05 32.941C118.05 33.4714 118.118 33.9482 118.254 34.3716C118.391 34.79 118.585 35.1452 118.838 35.4372C119.096 35.7291 119.41 35.9529 119.78 36.1086C120.155 36.2595 120.58 36.3349 121.057 36.3349C121.529 36.3349 121.95 36.2595 122.32 36.1086C122.69 35.9529 123.001 35.7291 123.254 35.4372C123.512 35.1452 123.709 34.79 123.845 34.3716C123.981 33.9482 124.05 33.4714 124.05 32.941ZM134.727 29.4596H130.508V38.2617H128.027V27.6276H134.727V29.4596ZM145.265 27.6276V38.2617H142.783V32.306C142.783 32.0287 142.791 31.7367 142.805 31.4302C142.825 31.1188 142.859 30.7879 142.907 30.4376C142.795 30.749 142.674 31.0385 142.542 31.3061C142.411 31.5689 142.282 31.8 142.156 31.9995L138.922 37.5246C138.869 37.6121 138.803 37.6997 138.725 37.7873C138.652 37.8749 138.57 37.9552 138.477 38.0282C138.385 38.0963 138.285 38.1522 138.178 38.196C138.071 38.2398 137.959 38.2617 137.842 38.2617H135.981V27.6276H138.463V33.576C138.463 33.8533 138.455 34.1477 138.441 34.4591C138.426 34.7657 138.392 35.0941 138.338 35.4444C138.45 35.1379 138.572 34.8533 138.703 34.5905C138.835 34.3229 138.964 34.0893 139.09 33.8898L142.323 28.3648C142.377 28.2772 142.44 28.1896 142.513 28.102C142.591 28.0144 142.676 27.9366 142.769 27.8685C142.861 27.7955 142.961 27.7371 143.068 27.6933C143.175 27.6495 143.287 27.6276 143.404 27.6276H145.265ZM156.612 27.6276V38.2617H154.13V32.306C154.13 32.0287 154.138 31.7367 154.152 31.4302C154.172 31.1188 154.206 30.7879 154.254 30.4376C154.143 30.749 154.021 31.0385 153.89 31.3061C153.758 31.5689 153.629 31.8 153.503 31.9995L150.269 37.5246C150.216 37.6121 150.15 37.6997 150.072 37.7873C149.999 37.8749 149.917 37.9552 149.824 38.0282C149.732 38.0963 149.632 38.1522 149.525 38.196C149.418 38.2398 149.306 38.2617 149.189 38.2617H147.328V27.6276H149.81V33.576C149.81 33.8533 149.802 34.1477 149.788 34.4591C149.773 34.7657 149.739 35.0941 149.686 35.4444C149.797 35.1379 149.919 34.8533 150.05 34.5905C150.182 34.3229 150.311 34.0893 150.437 33.8898L153.671 28.3648C153.724 28.2772 153.787 28.1896 153.86 28.102C153.938 28.0144 154.023 27.9366 154.116 27.8685C154.208 27.7955 154.308 27.7371 154.415 27.6933C154.522 27.6495 154.634 27.6276 154.751 27.6276H156.612Z" fill="white"/>
<path d="M41.8601 11.6621C41.2622 11.6623 40.6734 11.8053 40.1449 12.0787C39.6164 12.3522 39.1641 12.7478 38.8273 13.2313C38.4905 13.7147 38.2794 14.2713 38.2123 14.8527C38.1452 15.4342 38.2242 16.0228 38.4425 16.5676L30.7159 24.1297C29.8546 23.7979 28.8968 23.7979 28.0354 24.1297L22.512 18.7238C22.7307 18.179 22.8101 17.59 22.7433 17.0083C22.6765 16.4265 22.4655 15.8696 22.1286 15.3858C21.7918 14.9021 21.3393 14.5062 20.8105 14.2326C20.2817 13.959 19.6926 13.816 19.0944 13.816C18.4963 13.816 17.9072 13.959 17.3784 14.2326C16.8496 14.5062 16.3971 14.9021 16.0602 15.3858C15.7234 15.8696 15.5124 16.4265 15.4455 17.0083C15.3787 17.59 15.4581 18.179 15.6768 18.7238L6.48154 27.7235C5.69624 27.422 4.82882 27.3943 4.02513 27.6451C3.22144 27.8959 2.53049 28.41 2.06847 29.1007C1.60645 29.7915 1.40153 30.6169 1.48818 31.4381C1.57482 32.2594 1.94773 33.0264 2.54422 33.6102C3.14071 34.194 3.92439 34.559 4.76349 34.6438C5.60259 34.7286 6.44594 34.528 7.15172 34.0758C7.85751 33.6236 8.38269 32.9474 8.63896 32.1608C8.89523 31.3742 8.86696 30.5252 8.55891 29.7566L17.7542 20.757C18.6155 21.0888 19.5733 21.0888 20.4347 20.757L25.9581 26.1629C25.7394 26.7078 25.66 27.2967 25.7268 27.8784C25.7936 28.4602 26.0046 29.0171 26.3415 29.5009C26.6783 29.9846 27.1309 30.3805 27.6597 30.6541C28.1885 30.9277 28.7775 31.0707 29.3757 31.0707C29.9738 31.0707 30.5629 30.9277 31.0917 30.6541C31.6205 30.3805 32.073 29.9846 32.4099 29.5009C32.7467 29.0171 32.9578 28.4602 33.0246 27.8784C33.0914 27.2967 33.012 26.7078 32.7933 26.1629L40.5198 18.6007C41.0226 18.7941 41.5628 18.8764 42.1018 18.842C42.6409 18.8075 43.1655 18.6571 43.6383 18.4013C44.1111 18.1456 44.5205 17.791 44.8372 17.3627C45.1539 16.9344 45.3701 16.4429 45.4704 15.9234C45.5708 15.4039 45.5528 14.8691 45.4177 14.3572C45.2826 13.8453 45.0338 13.3689 44.689 12.9619C44.3442 12.5549 43.9119 12.2274 43.4229 12.0028C42.9339 11.7781 42.4002 11.6618 41.8601 11.6621Z" fill="white"/>
</svg>
